@startuml
'https://plantuml.com/component-diagram

left to right direction

component AnkiAddonsDataset
component AnkiWeb
component GitHub

interface "REST" as GitHubRest
interface "HTML" as AnkiWebHtml

GitHub -u- GitHubRest
AnkiWeb -u- AnkiWebHtml

AnkiAddonsDataset --> AnkiWebHtml
AnkiAddonsDataset --> GitHubRest

@enduml